<svg xmlns="http://www.w3.org/2000/svg" viewBox="0 0 229 272.28">
    <title>Asset 1</title>
    <g id="Layer_2" data-name="Layer 2">
        <g id="Layer_1-2" data-name="Layer 1">
            <path
                d="M70.8,36.5c-5,0-9.92-.23-14.84.17-1.21.1-2.93,2.09-3.27,3.49-3,12.64-5.75,25.35-8.7,38-.75,3.18.26,4.27,3.39,4.26,16.67-.05,33.34,0,50-.13a9.37,9.37,0,0,0,5.2-2.25c5.46-4.41,12.16-4.48,16.72.09a12.12,12.12,0,0,1,.48,16.73c-4.53,4.87-11,5.11-16.67.92a10.63,10.63,0,0,0-5.67-2.39q-26.5-.27-53,0c-1.65,0-4.18,1.44-4.77,2.85-2.25,5.37-1.43,6.3,4.44,6.31,8.67,0,17.35-.17,26,.14,2.2.08,4.37,1.7,6.52,2.68a2.59,2.59,0,0,1,1,1c7,11.28,17.29,14.37,29.86,12.56,3.76-.55,7.66-.07,11.5-.09,4.57,0,8.8.27,12.86-3.53,4.33-4.06,12.12-2.26,15.7,2.28a12.16,12.16,0,0,1-.61,16c-4.5,4.65-10.91,4.81-16.38,1.05a15.74,15.74,0,0,0-8-2.76c-11.33-.3-22.68.08-34-.27-2.64-.09-6.32-1.32-7.64-3.29C73.3,119,62.86,115.8,49.67,117.22c-8.83,1-17.86.19-27.41.19.59-3.24.95-5.68,1.49-8.07,6-26.66,12.16-53.3,18-80,1-4.38,2.6-6.11,7.23-5.85,7,.41,14,0,21,.17,3.44.09,5.19-1,5.8-4.55.85-4.92,2.22-9.75,3.14-14.66C79.51,1.34,80.8,0,84.21,0c20.18.15,40.35.12,60.53,0,3.08,0,4.46,1.05,5,4.1.91,5.08,2.38,10.06,3.29,15.14.59,3.26,2.15,4.45,5.42,4.38,7.33-.17,14.68.14,22-.13,3.89-.14,5.48,1.16,6.35,5q16.66,74.91,33.64,149.75c1.27,5.66,2.53,11.33,3.93,17.63H4.55c.71-3.53,1.33-6.89,2.07-10.22,2.72-12.2,5.57-24.37,8.15-36.6.65-3.05,2-4.11,5.06-4.05,9.67.16,19.34.22,29,0a12.6,12.6,0,0,0,6.64-2.38c5.55-4.07,12.26-3.9,16.75.87a11.76,11.76,0,0,1,.08,16.28c-4.55,4.82-11.2,5.12-16.67.8-1.14-.9-2.43-2.22-3.68-2.26-7.83-.22-15.67-.21-23.5,0a3.76,3.76,0,0,0-2.82,2.13c-1.83,7.22-3.41,14.51-5.2,22.4h187.7c-1.06-4.71-1.85-9.07-3.14-13.27-.27-.88-2.41-1.69-3.69-1.69q-36.51-.13-73,0c-1.59,0-3.37,1.17-4.75,2.22-5.8,4.44-12.55,4.2-17-.8a12.15,12.15,0,0,1,.37-16.38c4.32-4.47,11.26-4.49,16.79-.28a8.8,8.8,0,0,0,4.8,2c23.51.12,47,.08,70.53.05a18.6,18.6,0,0,0,2.61-.48c-.71-3.65-1.3-7.16-2.08-10.63-7.63-34-15.35-67.95-22.88-101.95-.87-4-2.36-5.78-6.63-5.36-3.93.38-7.92.08-11.92.08-1.16,4.51,1,7,3.49,9.62a10.92,10.92,0,0,1,.3,15,11.32,11.32,0,0,1-14.61,1.66c-4.52-3-5.89-8.9-3.53-14.24a13.86,13.86,0,0,0,1.42-5.54c-.09-4.72-2.19-6.82-7.51-6.63-12.82.45-25.67.14-38.51.14H92.74c1-4.12,1.55-7.71,2.9-11,.44-1.06,3-1.76,4.56-1.78,11.67-.15,23.34,0,35-.14,2,0,5.51,1.18,4.82-2.86-.53-3.05.31-7.49-5.23-7.44q-20.27.16-40.52,0c-3.07,0-4.42,1.21-5,4.19-1.68,8.16-3.77,16.24-5.38,24.41a11,11,0,0,0,.93,6.1c2.63,6,1.33,11.88-3.68,14.93a11.22,11.22,0,0,1-14.53-2.15c-3.83-4.56-3.24-10.5,1.06-15.41,1.82-2.08,2.94-4.78,4.37-7.2Z" />
            <path
                d="M196.59,259.44c3.79-.07,7.57-2.22,8.12,3.43,0,.52,1.12,1.11,1.83,1.35a8.73,8.73,0,0,0,2.47.19c12.4.41,12.4.41,12.41-12,0-12-2-13.72-14.12-11.52a4.46,4.46,0,0,0-2.75,3.1,53.64,53.64,0,0,0-.16,9c.11,3.12-1.89,3.91-4.17,3.23-1.41-.41-3.38-2.1-3.46-3.34a127.18,127.18,0,0,1,0-16.45,4.5,4.5,0,0,1,3.16-3c6.14-.29,12.32-.33,18.46,0,5.92.28,10,4.6,10.38,10.77.29,5.31.33,10.66.1,16-.3,7.33-4.67,11.71-12,12.07-5.32.25-10.66-.06-16,.12-3.24.11-4.56-1.07-4.32-4.34C196.74,265.3,196.59,262.64,196.59,259.44Z" />
            <path
                d="M157.34,264.41c6.06,0,10.5,0,14.94,0,6.83,0,7,.27,5.58,7.62-8.81,0-17.76.36-26.66-.15-4.89-.28-6.49-5.51-3-9.32,5.25-5.79,10.85-11.25,16.29-16.87,1.12-1.17,2.16-2.41,4.43-5-6.31,0-11.17-.05-16,0-2.84,0-5.23.14-5.2-4s2.55-3.55,5-3.55c6.82,0,13.65-.24,20.45.14,2.14.12,5.46,1.5,5.94,3,.63,2-.41,5.23-1.88,6.93-5,5.76-10.55,11.07-15.87,16.57C160.32,260.94,159.41,262.07,157.34,264.41Z" />
            <path
                d="M.15,233.92c7-1.44,7.32-1.2,7.34,5.14,0,6.67.17,13.34,0,20-.09,4,1.75,5.39,5.42,5.36,5.17-.06,10.34.1,15.5,0,2.87-.07,3.79,1.13,3.76,3.86s-.65,4.09-3.63,4c-5.67-.14-11.35.15-17-.13-6.13-.3-10.89-3.81-11.24-9.44C-.28,253.1.15,243.47.15,233.92Z" />
            <path
                d="M48.89,259.57c3.38-.35,6.59-2.09,8.26,2.87.4,1.2,4,1.83,6.1,1.89,10,.3,10.08.16,10.12-9.68,0-5.82.13-11.65,0-17.46-.09-3.09,1.15-4,4.1-4s3.52,1.57,3.5,4.08c-.07,7.32.14,14.64,0,21.95-.16,8.14-4.66,12.65-12.7,13a61.36,61.36,0,0,1-8.47-.12C52.9,271.37,49.29,267.29,48.89,259.57Z" />
            <path
                d="M98,259.41c3.28-.16,6.56-1.81,7.89,2.93.26.94,2.33,1.75,3.65,1.94,2.29.32,4.65,0,7,.14,4,.19,5.82-1.54,5.77-5.59-.08-7,.1-14,0-21,0-2.81.19-4.74,3.9-4.73S130,235.32,130,238c0,6.81.08,13.63,0,20.45-.07,8.85-4.72,13.58-13.55,13.74a47.84,47.84,0,0,1-9.43-.47C101,270.61,98,266.39,98,259.41Z" />
            <path
                d="M56.34,244.91c0,2.32-.11,4.65,0,7,.17,2.95-.49,4.67-4,4.58-3.23-.09-3.87-1.59-3.8-4.35.13-5,.17-10,0-14.92-.11-3.09,1.13-4,4.08-4,2.78,0,3.93,1,3.78,3.8C56.22,239.6,56.33,242.26,56.34,244.91Z" />
            <path
                d="M97.52,244.69c0-2.34.12-4.68,0-7-.21-3,.6-4.6,4.09-4.54s3.75,1.78,3.7,4.45c-.1,5-.12,10,0,15,.07,2.81-1.07,3.83-3.85,3.81s-4.08-.81-3.93-3.72C97.63,250,97.52,247.36,97.52,244.69Z" />
        </g>
    </g>
</svg>